<svg width="316" height="48" viewBox="0 0 316 48" fill="none" xmlns="http://www.w3.org/2000/svg">
<g clip-path="url(#clip0_5679_38178)">
<path d="M18.6431 32.2456C19.8038 32.9109 20.8461 33.505 21.8647 34.1466C22.3385 34.4555 22.7175 34.4317 23.215 34.1466C27.2894 31.7941 31.3639 29.4892 35.4383 27.1842C35.9121 26.9228 36.0542 26.5902 36.0542 26.0674C36.0305 20.3169 36.0305 14.5664 35.9595 8.79214C35.9595 8.45947 35.6752 7.96046 35.3909 7.79412C31.0322 5.20402 26.6261 2.68521 22.1964 0.142635C21.9832 0.0238232 21.6278 -0.0474639 21.462 0.0475856C20.2776 0.68917 19.1168 1.35452 17.8613 2.09115C18.264 2.32877 18.5246 2.51887 18.8089 2.68521C22.9781 5.08521 27.1473 7.50897 31.3165 9.88521C31.8613 10.1941 32.0982 10.5268 32.0745 11.1921C32.0745 15.3506 32.0982 19.4852 32.1456 23.6436C32.1456 24.309 31.9561 24.6892 31.3639 25.0218C28.8292 26.4238 26.3182 27.8733 23.7835 29.2991C22.1016 30.2496 20.4434 31.2238 18.6431 32.2456Z" fill="#00B39F"/>
<path d="M28.7584 37.5684C32.975 35.1921 37.1679 32.7684 41.3608 30.3446C41.645 30.1783 41.9056 29.7505 41.9056 29.4416C41.9056 23.6198 41.8819 17.8218 41.8582 12C41.8582 11.7149 41.6687 11.3109 41.4555 11.1684C40.3658 10.4793 39.2525 9.83767 37.9496 9.07727C37.9496 9.55252 37.9496 9.8139 37.9496 10.0991C37.9733 15.6357 37.9733 21.1723 38.0206 26.709C38.0206 27.4931 37.8311 27.9208 37.1205 28.301C34.5858 29.703 32.0748 31.1525 29.5638 32.602C27.8582 33.5763 26.1526 34.5743 24.376 35.5961" fill="#00D3A9"/>
<path d="M29.8003 22.1941C29.8003 20.8396 29.8477 19.604 29.7766 18.3921C29.7529 18.0356 29.4924 17.5604 29.2081 17.3941C25.0863 14.9465 20.9408 12.5228 16.8189 10.1465C16.5583 10.004 16.0846 9.98019 15.824 10.1228C10.7546 12.998 5.70894 15.897 0.663256 18.8436C0.402681 19.0099 0.142106 19.4614 0.142106 19.7703C0.118417 24.8079 0.142106 29.8455 0.189483 34.9069C0.189483 35.1683 0.23686 35.5485 0.402681 35.6436C1.56343 36.3802 2.77155 37.0455 4.07442 37.8059C4.07442 37.3069 4.07442 36.998 4.07442 36.6891C4.05073 31.8653 4.05073 27.0416 4.00336 22.2178C4.00336 21.6713 4.1218 21.3148 4.64295 21.0297C8.31469 18.9386 11.9391 16.8475 15.5634 14.7327C16.0609 14.4475 16.4636 14.4 16.9847 14.7089C19.6379 16.301 22.291 17.8218 24.9678 19.3901C26.5313 20.3168 28.1184 21.2198 29.8003 22.1941Z" fill="#00B39F"/>
<path d="M42 32.0316C41.4315 32.3405 41.0998 32.5544 40.7445 32.7445C36.6464 35.097 32.5719 37.4495 28.4738 39.8257C28 40.1108 27.6447 40.1584 27.1472 39.8495C23.4755 37.6871 19.78 35.5722 16.0846 33.4574C15.5635 33.1722 15.445 32.8158 15.445 32.2693C15.4687 27.6831 15.445 23.1207 15.445 18.5346C15.445 18.2495 15.4213 17.9405 15.3976 17.5128C14.2606 18.1782 13.242 18.796 12.176 19.3425C11.6548 19.6039 11.5127 19.9841 11.5127 20.5306C11.5364 25.2356 11.5127 29.9405 11.5601 34.6217C11.5601 34.9544 11.8443 35.4534 12.1286 35.6197C17.1506 38.5663 22.1963 41.4891 27.2657 44.3881C27.5262 44.5544 28.0474 44.5306 28.3316 44.3881C32.714 41.9168 37.0491 39.398 41.4078 36.8554C41.6447 36.7128 41.9526 36.4277 41.9526 36.2138C42.0237 34.9069 42 33.5762 42 32.0316Z" fill="#00B39F"/>
<path d="M29.8241 15.5644C29.8241 14.2099 29.8004 13.0218 29.8241 11.8099C29.8478 11.2871 29.6583 10.9782 29.1845 10.7168C25.0153 8.31684 20.8698 5.89308 16.6769 3.51684C16.3926 3.35051 15.8241 3.35051 15.5398 3.51684C10.5415 6.34457 5.54321 9.21981 0.544902 12.1188C0.331704 12.2376 0.0237515 12.4277 0.0237515 12.5941C-0.0236259 13.9723 6.27912e-05 15.3743 6.27912e-05 16.8951C0.40277 16.6812 0.615968 16.5862 0.829166 16.4673C5.73272 13.6634 10.6126 10.8594 15.5161 8.03169C15.9662 7.77031 16.2979 7.74655 16.7479 8.00793C20.3012 10.099 23.9019 12.1663 27.4789 14.2337C28.2133 14.6614 28.9476 15.0654 29.8241 15.5644Z" fill="#00D3A9"/>
<path d="M25.963 45.9089C25.6077 45.6713 25.3945 45.5287 25.1813 45.4099C20.3014 42.5822 15.4215 39.7544 10.518 36.9505C9.97314 36.6416 9.73625 36.3089 9.75994 35.6673C9.78363 31.0574 9.75994 26.4475 9.73625 21.8376C9.73625 21.5287 9.71256 21.196 9.68888 20.7683C8.43338 21.4812 7.3437 22.099 6.27771 22.7644C6.04082 22.9069 5.875 23.3109 5.875 23.5723C5.875 28.4198 5.875 33.2911 5.92238 38.1386C5.92238 38.4475 6.18295 38.899 6.46722 39.0653C11.4655 42.0119 16.5112 44.9109 21.5569 47.8337C21.7938 47.9762 22.1728 48.0713 22.386 47.9525C23.5704 47.3346 24.6838 46.6455 25.963 45.9089Z" fill="#00D3A9"/>
</g>
<path d="M64.72 33.336C61.6 33.336 58.888 31.776 58.624 28.416C58.6 28.032 58.816 27.84 59.176 27.84H61.336C61.696 27.84 61.864 28.008 61.936 28.392C62.128 29.52 63.088 30.12 64.72 30.12C66.4 30.12 67.192 29.4 67.192 28.416C67.192 27.216 65.848 26.712 64.264 26.136C61.84 25.296 58.888 24.336 58.888 20.76C58.888 17.544 61.552 15.888 64.36 15.888C67.12 15.888 69.712 17.4 70 20.712C70.024 21.096 69.808 21.288 69.424 21.288H67.264C66.928 21.288 66.736 21.12 66.688 20.76C66.472 19.632 65.656 19.104 64.36 19.104C62.992 19.104 62.2 19.8 62.2 20.76C62.2 22.008 63.352 22.536 64.888 23.112C67.336 24 70.504 24.864 70.504 28.416C70.504 31.632 67.84 33.336 64.72 33.336ZM73.0696 19.32C72.7096 19.32 72.4936 19.128 72.4936 18.768V16.776C72.4936 16.416 72.7096 16.2 73.0696 16.2H75.0376C75.3976 16.2 75.5896 16.416 75.5896 16.776V18.768C75.5896 19.128 75.3976 19.32 75.0376 19.32H73.0696ZM73.0696 33C72.7096 33 72.4936 32.808 72.4936 32.448V21.576C72.4936 21.216 72.7096 21 73.0696 21H75.0376C75.3976 21 75.5896 21.216 75.5896 21.576V32.448C75.5896 32.808 75.3976 33 75.0376 33H73.0696ZM81.1593 24.504C81.1593 26.592 87.6393 24.888 87.6393 29.52C87.6393 32.088 85.4313 33.336 82.7673 33.336C80.3193 33.336 78.2313 32.184 77.9673 29.784C77.9193 29.4 78.1593 29.184 78.5193 29.184H80.4393C80.7753 29.184 80.8953 29.376 81.0393 29.688C81.2553 30.312 81.9033 30.6 82.7673 30.6C83.9193 30.6 84.5433 30.216 84.5433 29.52C84.5433 27.456 78.0633 29.112 78.0633 24.504C78.0633 21.96 80.2713 20.688 82.7673 20.688C85.0233 20.688 87.0633 21.816 87.3513 24.24C87.3993 24.624 87.1593 24.84 86.7993 24.84H84.8793C84.5433 24.84 84.3993 24.648 84.2553 24.312C84.0872 23.712 83.4873 23.4 82.7673 23.4C81.7833 23.4 81.1593 23.808 81.1593 24.504ZM95.3367 21C95.7207 21 95.9127 21.216 95.9127 21.576V23.424C95.9127 23.784 95.7207 23.976 95.3367 23.976H93.8487V32.448C93.8487 32.808 93.6567 33 93.2727 33H91.3287C90.9687 33 90.7527 32.808 90.7527 32.448V23.976H89.2647C88.8807 23.976 88.6887 23.784 88.6887 23.424V21.576C88.6887 21.216 88.8807 21 89.2647 21H90.7527V17.736C90.7527 17.376 90.9687 17.16 91.3287 17.16H93.2727C93.6567 17.16 93.8487 17.376 93.8487 17.736V21H95.3367ZM103.144 20.688C106.696 20.688 109.144 23.472 109.144 27.024C109.144 27.288 109.12 27.528 109.096 27.768C109.072 28.128 108.832 28.296 108.496 28.296H106.024H99.9996C100.432 30 101.728 30.768 103.264 30.768C104.176 30.768 104.968 30.408 105.448 29.904C105.664 29.688 105.856 29.568 106.144 29.568H108.064C108.496 29.568 108.712 29.832 108.544 30.192C107.632 32.208 105.664 33.336 103.216 33.336C99.3036 33.336 96.7836 30.6 96.7836 27C96.7836 23.448 99.3756 20.688 103.144 20.688ZM99.9996 25.848H106.048C105.688 24.144 104.416 23.472 103.12 23.472C101.488 23.472 100.36 24.36 99.9996 25.848ZM117.596 20.688C119.828 20.688 121.508 22.392 121.508 25.344V32.448C121.508 32.808 121.292 33 120.932 33H118.964C118.604 33 118.412 32.808 118.412 32.448V25.584C118.412 24.192 117.596 23.544 116.492 23.544C115.292 23.544 114.332 24.264 114.332 26.064V32.448C114.332 32.808 114.14 33 113.756 33H111.812C111.452 33 111.236 32.808 111.236 32.448V21.576C111.236 21.216 111.452 21 111.812 21H113.756C114.14 21 114.332 21.216 114.332 21.576V22.248C115.004 21.24 116.108 20.688 117.596 20.688ZM129.649 21C130.033 21 130.225 21.216 130.225 21.576V23.424C130.225 23.784 130.033 23.976 129.649 23.976H128.161V32.448C128.161 32.808 127.969 33 127.585 33H125.641C125.281 33 125.065 32.808 125.065 32.448V23.976H123.577C123.193 23.976 123.001 23.784 123.001 23.424V21.576C123.001 21.216 123.193 21 123.577 21H125.065V17.736C125.065 17.376 125.281 17.16 125.641 17.16H127.585C127.969 17.16 128.161 17.376 128.161 17.736V21H129.649ZM145.441 16.2C150.073 16.2 153.433 19.944 153.433 24.6C153.433 29.28 150.073 33 145.441 33H139.273H138.937C138.601 33 138.433 32.832 138.433 32.496V16.728C138.433 16.392 138.601 16.2 138.937 16.2H140.641H145.441ZM145.441 30.888C148.921 30.888 151.273 28.152 151.273 24.6C151.273 21.072 148.921 18.312 145.441 18.312H140.641V30.888H145.441ZM161.573 20.712C165.197 20.712 167.453 23.664 167.453 27.048C167.453 27.192 167.453 27.336 167.453 27.48C167.429 27.816 167.213 27.96 166.901 27.96H165.341H157.517C157.877 30.168 159.509 31.44 161.621 31.44C163.013 31.44 164.093 30.84 164.645 30C164.813 29.784 164.981 29.664 165.269 29.664H166.421C166.805 29.664 166.997 29.88 166.853 30.192C166.013 32.088 164.045 33.312 161.597 33.312C157.853 33.312 155.357 30.624 155.357 27C155.357 23.472 157.829 20.712 161.573 20.712ZM157.517 26.136H165.341C165.029 23.784 163.373 22.656 161.573 22.656C159.341 22.656 157.829 24.048 157.517 26.136ZM171.492 24.264C171.492 27 178.356 25.224 178.356 29.76C178.356 31.92 176.436 33.312 173.772 33.312C171.3 33.312 169.476 32.088 169.212 29.952C169.188 29.592 169.404 29.424 169.716 29.424H170.772C171.084 29.424 171.228 29.592 171.324 29.88C171.54 30.984 172.572 31.368 173.772 31.368C175.164 31.368 176.268 30.888 176.268 29.76C176.268 27.024 169.404 28.8 169.404 24.264C169.404 22.104 171.324 20.712 173.772 20.712C176.028 20.712 177.828 21.912 178.068 24.072C178.116 24.432 177.9 24.6 177.564 24.6H176.508C176.22 24.6 176.076 24.432 175.98 24.12C175.764 23.04 174.78 22.632 173.772 22.632C172.596 22.632 171.492 23.136 171.492 24.264ZM181.471 18.84C181.135 18.84 180.967 18.672 180.967 18.336V16.728C180.967 16.392 181.135 16.2 181.471 16.2H182.551C182.863 16.2 183.055 16.392 183.055 16.728V18.336C183.055 18.672 182.863 18.84 182.551 18.84H181.471ZM181.471 33C181.135 33 180.967 32.832 180.967 32.496V21.528C180.967 21.192 181.135 21 181.471 21H182.551C182.863 21 183.055 21.192 183.055 21.528V32.496C183.055 32.832 182.863 33 182.551 33H181.471ZM197.736 21C198.072 21 198.24 21.192 198.24 21.528V32.496C198.24 36.24 195.336 38.112 192.192 38.112C189.384 38.112 186.72 36.48 186.384 34.056C186.36 33.696 186.576 33.528 186.888 33.528H187.968C188.28 33.528 188.424 33.672 188.52 33.984C188.808 35.04 190.104 36.168 192.192 36.168C194.76 36.168 196.176 34.752 196.176 32.496V30.84C195.216 32.28 193.656 33.192 191.616 33.192C188.304 33.192 185.544 30.456 185.544 26.952C185.544 23.448 188.304 20.712 191.616 20.712C193.656 20.712 195.216 21.624 196.176 23.064V21.528C196.176 21.192 196.368 21 196.68 21H197.736ZM191.904 31.2C194.328 31.2 196.176 29.352 196.176 26.952C196.176 24.528 194.328 22.68 191.904 22.68C189.48 22.68 187.632 24.528 187.632 26.952C187.632 29.352 189.48 31.2 191.904 31.2ZM207.068 20.712C209.3 20.712 211.076 22.392 211.076 25.224V32.496C211.076 32.832 210.908 33 210.572 33H209.516C209.18 33 208.988 32.832 208.988 32.496V25.296C208.988 23.568 207.932 22.68 206.516 22.68C205.004 22.68 203.516 23.592 203.516 26.184V32.496C203.516 32.832 203.324 33 203.012 33H201.932C201.596 33 201.428 32.832 201.428 32.496V21.528C201.428 21.192 201.596 21 201.932 21H203.012C203.324 21 203.516 21.192 203.516 21.528V22.488C204.38 21.192 205.604 20.712 207.068 20.712ZM225.198 33.312C222.15 33.312 219.51 31.68 219.27 28.56C219.246 28.224 219.414 28.032 219.75 28.032H220.974C221.286 28.032 221.454 28.2 221.478 28.536C221.718 30.24 223.158 31.152 225.198 31.152C227.142 31.152 228.51 30.168 228.51 28.656C228.51 27.024 226.878 26.328 225.006 25.656C222.51 24.72 219.654 23.832 219.654 20.472C219.654 17.544 222.174 15.912 224.862 15.912C227.55 15.912 229.974 17.448 230.214 20.376C230.238 20.736 230.07 20.904 229.734 20.904H228.51C228.198 20.904 228.03 20.736 228.006 20.424C227.79 18.864 226.542 18.072 224.862 18.072C223.158 18.072 221.886 18.96 221.886 20.472C221.886 22.152 223.374 22.824 225.246 23.544C227.742 24.48 230.718 25.392 230.718 28.656C230.718 31.584 228.126 33.312 225.198 33.312ZM240.085 21.432C240.181 21.144 240.373 21 240.661 21H241.837C242.197 21 242.365 21.24 242.245 21.6L236.725 37.392C236.629 37.68 236.413 37.8 236.125 37.8H234.949C234.589 37.8 234.421 37.584 234.541 37.224L236.053 32.88L231.517 21.6C231.373 21.24 231.541 21 231.925 21H233.077C233.341 21 233.557 21.12 233.653 21.408L237.109 30L240.085 21.432ZM245.648 24.264C245.648 27 252.512 25.224 252.512 29.76C252.512 31.92 250.592 33.312 247.928 33.312C245.456 33.312 243.632 32.088 243.368 29.952C243.344 29.592 243.56 29.424 243.872 29.424H244.928C245.24 29.424 245.384 29.592 245.48 29.88C245.696 30.984 246.728 31.368 247.928 31.368C249.32 31.368 250.424 30.888 250.424 29.76C250.424 27.024 243.56 28.8 243.56 24.264C243.56 22.104 245.48 20.712 247.928 20.712C250.184 20.712 251.984 21.912 252.224 24.072C252.272 24.432 252.056 24.6 251.72 24.6H250.664C250.376 24.6 250.232 24.432 250.136 24.12C249.92 23.04 248.936 22.632 247.928 22.632C246.752 22.632 245.648 23.136 245.648 24.264ZM260.025 21C260.361 21 260.529 21.192 260.529 21.528V22.512C260.529 22.848 260.361 23.016 260.025 23.016H258.177V32.496C258.177 32.832 258.009 33 257.673 33H256.593C256.281 33 256.089 32.832 256.089 32.496V23.016H254.241C253.905 23.016 253.713 22.848 253.713 22.512V21.528C253.713 21.192 253.905 21 254.241 21H256.089V17.688C256.089 17.352 256.281 17.16 256.593 17.16H257.673C258.009 17.16 258.177 17.352 258.177 17.688V21H260.025ZM267.674 20.712C271.298 20.712 273.554 23.664 273.554 27.048C273.554 27.192 273.554 27.336 273.554 27.48C273.53 27.816 273.314 27.96 273.002 27.96H271.442H263.618C263.978 30.168 265.61 31.44 267.722 31.44C269.114 31.44 270.194 30.84 270.746 30C270.914 29.784 271.082 29.664 271.37 29.664H272.522C272.906 29.664 273.098 29.88 272.954 30.192C272.114 32.088 270.146 33.312 267.698 33.312C263.954 33.312 261.458 30.624 261.458 27C261.458 23.472 263.93 20.712 267.674 20.712ZM263.618 26.136H271.442C271.13 23.784 269.474 22.656 267.674 22.656C265.442 22.656 263.93 24.048 263.618 26.136ZM287.625 20.712C289.737 20.712 291.393 22.152 291.393 24.912V32.496C291.393 32.832 291.225 33 290.889 33H289.833C289.497 33 289.305 32.832 289.305 32.496V25.008C289.305 23.328 288.345 22.68 287.217 22.68C286.137 22.68 284.673 23.352 284.673 25.704V32.496C284.673 32.832 284.505 33 284.169 33H283.089C282.777 33 282.585 32.832 282.585 32.496V25.008C282.585 23.328 281.625 22.68 280.497 22.68C279.417 22.68 277.953 23.352 277.953 25.704V32.496C277.953 32.832 277.761 33 277.449 33H276.369C276.033 33 275.865 32.832 275.865 32.496V21.528C275.865 21.192 276.033 21 276.369 21H277.449C277.761 21 277.953 21.192 277.953 21.528V22.32C278.769 21.144 279.897 20.712 281.049 20.712C282.345 20.712 283.521 21.36 284.169 22.584C285.057 21.192 286.281 20.712 287.625 20.712Z" fill="#000D12"/>
<defs>
<clipPath id="clip0_5679_38178">
<rect width="42" height="48" fill="white"/>
</clipPath>
</defs>
</svg>
